<svg xmlns="http://www.w3.org/2000/svg" height="512pt" version="1.1" viewBox="-48 0 512 512" width="512pt">
<g id="surface1">
<path d="M 194.351562 249.359375 L 171.742188 295.175781 L 121.179688 302.523438 C 115.527344 303.34375 110.832031 307.300781 109.070312 312.730469 C 107.304688 318.160156 108.777344 324.121094 112.863281 328.109375 L 149.449219 363.769531 L 140.8125 414.128906 C 139.847656 419.757812 142.160156 425.445312 146.78125 428.800781 C 151.398438 432.15625 157.523438 432.601562 162.578125 429.945312 L 207.800781 406.167969 L 253.023438 429.945312 C 255.21875 431.097656 257.617188 431.667969 260.003906 431.667969 C 260.019531 431.667969 260.03125 431.667969 260.046875 431.667969 C 268.320312 431.65625 275.023438 424.945312 275.023438 416.667969 C 275.023438 415.515625 274.894531 414.394531 274.648438 413.316406 L 266.152344 363.769531 L 302.738281 328.109375 C 306.828125 324.121094 308.300781 318.160156 306.535156 312.730469 C 304.769531 307.300781 300.074219 303.34375 294.425781 302.523438 L 243.863281 295.179688 L 221.253906 249.359375 C 218.726562 244.242188 213.511719 241 207.804688 241 C 202.09375 241 196.878906 244.242188 194.351562 249.359375 Z M 220.453125 315.527344 C 222.636719 319.953125 226.863281 323.023438 231.746094 323.730469 L 260.035156 327.839844 L 239.566406 347.792969 C 236.03125 351.238281 234.417969 356.203125 235.25 361.070312 L 240.085938 389.246094 L 214.785156 375.941406 C 210.414062 373.648438 205.191406 373.644531 200.824219 375.941406 L 175.519531 389.246094 L 180.355469 361.070312 C 181.1875 356.203125 179.574219 351.238281 176.039062 347.792969 L 155.570312 327.839844 L 183.859375 323.730469 C 188.746094 323.023438 192.96875 319.953125 195.152344 315.527344 L 207.804688 289.894531 Z M 220.453125 315.527344 " style=" stroke:none;fill-rule:nonzero;fill:rgb(0%,0%,0%);fill-opacity:1;" />
<path d="M 360.433594 80.335938 L 297.035156 80.335938 C 300.925781 72.78125 303.136719 64.230469 303.136719 55.167969 C 303.136719 24.746094 278.386719 0 247.96875 0 C 232.148438 0 217.871094 6.703125 207.800781 17.410156 C 197.734375 6.703125 183.457031 0 167.636719 0 C 137.214844 0 112.46875 24.746094 112.46875 55.167969 C 112.46875 64.230469 114.679688 72.78125 118.570312 80.335938 L 55.167969 80.335938 C 24.746094 80.335938 0 105.082031 0 135.5 L 0 175.664062 C 0 183.949219 6.714844 190.664062 15 190.664062 L 16.066406 190.664062 L 16.066406 456.832031 C 16.066406 487.253906 40.8125 512 71.234375 512 L 344.367188 512 C 374.785156 512 399.535156 487.253906 399.535156 456.832031 L 399.535156 190.664062 L 400.601562 190.664062 C 408.886719 190.664062 415.601562 183.949219 415.601562 175.664062 L 415.601562 135.5 C 415.601562 105.082031 390.855469 80.335938 360.433594 80.335938 Z M 385.601562 135.5 L 385.601562 160.664062 L 222.800781 160.664062 L 222.800781 110.335938 L 360.433594 110.335938 C 374.3125 110.335938 385.601562 121.625 385.601562 135.5 Z M 247.96875 30 C 261.84375 30 273.136719 41.289062 273.136719 55.167969 C 273.136719 69.046875 261.84375 80.335938 247.96875 80.335938 L 222.800781 80.335938 L 222.800781 55.167969 C 222.800781 41.289062 234.089844 30 247.96875 30 Z M 142.46875 55.167969 C 142.46875 41.289062 153.757812 30 167.636719 30 C 181.511719 30 192.800781 41.289062 192.800781 55.167969 L 192.800781 80.335938 L 167.636719 80.335938 C 153.757812 80.335938 142.46875 69.046875 142.46875 55.167969 Z M 30 135.5 C 30 121.625 41.289062 110.335938 55.167969 110.335938 L 192.800781 110.335938 L 192.800781 160.664062 L 30 160.664062 Z M 369.535156 456.832031 C 369.535156 470.710938 358.242188 482 344.367188 482 L 71.234375 482 C 57.359375 482 46.066406 470.710938 46.066406 456.832031 L 46.066406 190.664062 L 369.535156 190.664062 Z M 369.535156 456.832031 " style=" stroke:none;fill-rule:nonzero;fill:rgb(0%,0%,0%);fill-opacity:1;" />
</g>
</svg>